<svg xmlns="http://www.w3.org/2000/svg" xmlns:xlink="http://www.w3.org/1999/xlink" width="409" height="549" fill="#000" fill-opacity="1" stroke="#000" stroke-dasharray="none" stroke-dashoffset="0" stroke-linecap="square" stroke-linejoin="miter" stroke-miterlimit="10" stroke-opacity="1" stroke-width="1" color-interpolation="auto" color-rendering="auto" font-family="'Dialog'" font-size="12" font-style="normal" font-weight="normal" image-rendering="auto" shape-rendering="auto" text-rendering="auto"><g><g fill="#fff" stroke="#fff" shape-rendering="geometricPrecision" text-rendering="geometricPrecision" transform="translate(-425,-54)"><rect width="409" height="549" x="425" y="54" stroke="none" clip-path="url(#clipPath2)"/></g><g fill="#FF9" stroke="#FF9" shape-rendering="geometricPrecision" text-rendering="geometricPrecision" transform="matrix(1,0,0,1,-425,-54)"><rect width="379" height="73" x="440" y="415" stroke="none" clip-path="url(#clipPath2)"/></g><g stroke-linecap="butt" stroke-miterlimit="1.45" font-family="sans-serif" shape-rendering="geometricPrecision" text-rendering="geometricPrecision" transform="matrix(1,0,0,1,-425,-54)"><text x="613.826" y="456.214" stroke="none" clip-path="url(#clipPath2)" xml:space="preserve">PHP5</text><rect width="379" height="73" x="440" y="415" fill="none" clip-path="url(#clipPath2)"/></g><g fill="#FC0" stroke="#FC0" shape-rendering="geometricPrecision" text-rendering="geometricPrecision" transform="matrix(1,0,0,1,-425,-54)"><rect width="379" height="73" x="440" y="318" stroke="none" clip-path="url(#clipPath2)"/></g><g stroke-linecap="butt" stroke-miterlimit="1.45" font-family="sans-serif" shape-rendering="geometricPrecision" text-rendering="geometricPrecision" transform="matrix(1,0,0,1,-425,-54)"><text x="619.495" y="359.214" stroke="none" clip-path="url(#clipPath2)" xml:space="preserve">Yii2</text><rect width="379" height="73" x="440" y="318" fill="none" clip-path="url(#clipPath2)"/></g><g fill="#3CC" stroke="#3CC" shape-rendering="geometricPrecision" text-rendering="geometricPrecision" transform="matrix(1,0,0,1,-425,-54)"><rect width="379" height="128" x="440" y="166" stroke="none" clip-path="url(#clipPath2)"/></g><g stroke-linecap="butt" stroke-miterlimit="1.45" font-family="sans-serif" shape-rendering="geometricPrecision" text-rendering="geometricPrecision" transform="matrix(1,0,0,1,-425,-54)"><text x="605.825" y="184.065" stroke="none" clip-path="url(#clipPath2)" xml:space="preserve">HumHub</text><rect width="379" height="128" x="440" y="166" fill="none" clip-path="url(#clipPath2)"/></g><g fill="#0CF" stroke="#0CF" shape-rendering="geometricPrecision" text-rendering="geometricPrecision" transform="matrix(1,0,0,1,-425,-54)"><rect width="65" height="65" x="456" y="218" stroke="none" clip-path="url(#clipPath2)" rx="4" ry="4"/></g><g stroke-linecap="butt" stroke-miterlimit="1.45" font-family="sans-serif" shape-rendering="geometricPrecision" text-rendering="geometricPrecision" transform="matrix(1,0,0,1,-425,-54)"><text x="463.152" y="255.214" stroke="none" clip-path="url(#clipPath2)" xml:space="preserve">Module A</text><rect width="65" height="65" x="456" y="218" fill="none" clip-path="url(#clipPath2)" rx="4" ry="4"/></g><g fill="#0CF" stroke="#0CF" shape-rendering="geometricPrecision" text-rendering="geometricPrecision" transform="matrix(1,0,0,1,-425,-54)"><rect width="65" height="65" x="551" y="218" stroke="none" clip-path="url(#clipPath2)" rx="4" ry="4"/></g><g stroke-linecap="butt" stroke-miterlimit="1.45" font-family="sans-serif" shape-rendering="geometricPrecision" text-rendering="geometricPrecision" transform="matrix(1,0,0,1,-425,-54)"><text x="558.152" y="255.214" stroke="none" clip-path="url(#clipPath2)" xml:space="preserve">Module B</text><rect width="65" height="65" x="551" y="218" fill="none" clip-path="url(#clipPath2)" rx="4" ry="4"/></g><g fill="#0CF" stroke="#0CF" shape-rendering="geometricPrecision" text-rendering="geometricPrecision" transform="matrix(1,0,0,1,-425,-54)"><rect width="65" height="65" x="646" y="218" stroke="none" clip-path="url(#clipPath2)" rx="4" ry="4"/></g><g stroke-linecap="butt" stroke-miterlimit="1.45" font-family="sans-serif" shape-rendering="geometricPrecision" text-rendering="geometricPrecision" transform="matrix(1,0,0,1,-425,-54)"><text x="652.821" y="255.214" stroke="none" clip-path="url(#clipPath2)" xml:space="preserve">Module C</text><rect width="65" height="65" x="646" y="218" fill="none" clip-path="url(#clipPath2)" rx="4" ry="4"/></g><g fill="#0CF" stroke="#0CF" shape-rendering="geometricPrecision" text-rendering="geometricPrecision" transform="matrix(1,0,0,1,-425,-54)"><rect width="65" height="65" x="741" y="218" stroke="none" clip-path="url(#clipPath2)" rx="4" ry="4"/></g><g stroke-linecap="butt" stroke-miterlimit="1.45" font-family="sans-serif" shape-rendering="geometricPrecision" text-rendering="geometricPrecision" transform="matrix(1,0,0,1,-425,-54)"><text x="747.821" y="255.214" stroke="none" clip-path="url(#clipPath2)" xml:space="preserve">Module D</text><rect width="65" height="65" x="741" y="218" fill="none" clip-path="url(#clipPath2)" rx="4" ry="4"/></g><g fill="#9C0" stroke="#9C0" shape-rendering="geometricPrecision" text-rendering="geometricPrecision" transform="matrix(1,0,0,1,-425,-54)"><rect width="379" height="73" x="440" y="69" stroke="none" clip-path="url(#clipPath2)"/></g><g stroke-linecap="butt" stroke-miterlimit="1.45" font-family="sans-serif" shape-rendering="geometricPrecision" text-rendering="geometricPrecision" transform="matrix(1,0,0,1,-425,-54)"><text x="557.143" y="110.214" stroke="none" clip-path="url(#clipPath2)" xml:space="preserve">HTML5 (Bootstrap, Jquery)</text><rect width="379" height="73" x="440" y="69" fill="none" clip-path="url(#clipPath2)"/></g><g shape-rendering="geometricPrecision" text-rendering="geometricPrecision"><g clip-path="url(#clipPath3)" transform="matrix(1,0,0,1,184.1385,463.113)"><svg width="41" height="48" x="0" y="0" fill="#000" fill-opacity="1" fill-rule="nonzero" stroke="none" stroke-dasharray="none" stroke-dashoffset="0" stroke-linecap="butt" stroke-linejoin="miter" stroke-miterlimit="4" stroke-opacity="1" stroke-width="1" marker-end="none" marker-mid="none" marker-start="none" alignment-baseline="auto" baseline-shift="baseline" clip="auto" clip-path="none" clip-rule="nonzero" color="#000" color-interpolation="srgb" color-interpolation-filters="linearrgb" color-profile="auto" color-rendering="auto" cursor="auto" direction="ltr" display="inline" dominant-baseline="auto" enable-background="new -.875 -.887 41 48" filter="none" flood-color="#000" flood-opacity="1" font-family="&quot;Arial&quot;,&quot;Helvetica&quot;,sans-serif" font-size="12" font-size-adjust="none" font-stretch="normal" font-style="normal" font-variant="normal" font-weight="400" glyph-orientation-horizontal="0deg" glyph-orientation-vertical="auto" image-rendering="auto" kerning="auto" letter-spacing="normal" lighting-color="#FFF" mask="none" opacity="1" overflow="hidden" pointer-events="visiblepainted" shape-rendering="auto" src="none" stop-color="#000" stop-opacity="1" text-anchor="start" text-decoration="none" text-rendering="auto" unicode-bidi="normal" version="1.1" viewBox="-0.875 -0.887 41 48" visibility="visible" word-spacing="normal" writing-mode="lr-tb" xml:space="preserve"><defs><clipPath id="clipPath1" clipPathUnits="userSpaceOnUse"><path d="M0 0 L409 0 L409 549 L0 549 L0 0 Z"/></clipPath><clipPath id="clipPath2" clipPathUnits="userSpaceOnUse"><path d="M425 54 L834 54 L834 603 L425 603 L425 54 Z"/></clipPath><clipPath id="clipPath3" clipPathUnits="userSpaceOnUse"><path d="M-184.1385 -463.113 L224.8615 -463.113 L224.8615 85.887 L-184.1385 85.887 L-184.1385 -463.113 Z"/></clipPath></defs><linearGradient id="svg1.SVGID_1_" x1="642.801" x2="682.051" y1="-979.144" y2="-979.144" gradientTransform="matrix(1 0 0 -1 -642.8008 -939.4756)" gradientUnits="userSpaceOnUse"><stop offset="0" stop-color="#3C89C9"/><stop offset=".148" stop-color="#60A6DD"/><stop offset=".311" stop-color="#81C1F0"/><stop offset=".448" stop-color="#95D1FB"/><stop offset=".539" stop-color="#9CD7FF"/><stop offset=".636" stop-color="#98D4FD"/><stop offset=".729" stop-color="#8DCAF6"/><stop offset=".821" stop-color="#79BBEB"/><stop offset=".912" stop-color="#5EA5DC"/><stop offset="1" stop-color="#3C89C9"/></linearGradient><path fill="url(#svg1.SVGID_1_)" d="M19.625,36.763C8.787,36.763,0,34.888,0,32.575v10c0,2.313,8.787,4.188,19.625,4.188 c10.839,0,19.625-1.875,19.625-4.188v-10C39.25,34.888,30.464,36.763,19.625,36.763z"/><linearGradient id="svg1.SVGID_2_" x1="642.801" x2="682.051" y1="-973.144" y2="-973.144" gradientTransform="matrix(1 0 0 -1 -642.8008 -939.4756)" gradientUnits="userSpaceOnUse"><stop offset="0" stop-color="#9CD7FF"/><stop offset=".004" stop-color="#9DD7FF"/><stop offset=".227" stop-color="#BDE5FF"/><stop offset=".414" stop-color="#D1EEFF"/><stop offset=".539" stop-color="#D9F1FF"/><stop offset=".616" stop-color="#D5EFFE"/><stop offset=".689" stop-color="#C9E7FA"/><stop offset=".762" stop-color="#B6DAF3"/><stop offset=".834" stop-color="#9AC8EA"/><stop offset=".905" stop-color="#77B0DD"/><stop offset=".975" stop-color="#4D94CF"/><stop offset="1" stop-color="#3C89C9"/></linearGradient><path fill="url(#svg1.SVGID_2_)" d="M19.625,36.763c10.839,0,19.625-1.875,19.625-4.188l-1.229-2c0,2.168-8.235,3.927-18.396,3.927 c-9.481,0-17.396-1.959-18.396-3.927l-1.229,2C0,34.888,8.787,36.763,19.625,36.763z"/><path fill="#3C89C9" d="M19.625,26.468c10.16,0,19.625,2.775,19.625,2.775c-0.375,2.721-5.367,5.438-19.554,5.438 c-12.125,0-18.467-2.484-19.541-4.918C-0.127,29.125,9.465,26.468,19.625,26.468z"/><linearGradient id="svg1.SVGID_3_" x1="642.801" x2="682.051" y1="-965.695" y2="-965.695" gradientTransform="matrix(1 0 0 -1 -642.8008 -939.4756)" gradientUnits="userSpaceOnUse"><stop offset="0" stop-color="#3C89C9"/><stop offset=".148" stop-color="#60A6DD"/><stop offset=".311" stop-color="#81C1F0"/><stop offset=".448" stop-color="#95D1FB"/><stop offset=".539" stop-color="#9CD7FF"/><stop offset=".636" stop-color="#98D4FD"/><stop offset=".729" stop-color="#8DCAF6"/><stop offset=".821" stop-color="#79BBEB"/><stop offset=".912" stop-color="#5EA5DC"/><stop offset="1" stop-color="#3C89C9"/></linearGradient><path fill="url(#svg1.SVGID_3_)" d="M19.625,23.313C8.787,23.313,0,21.438,0,19.125v10c0,2.313,8.787,4.188,19.625,4.188 c10.839,0,19.625-1.875,19.625-4.188v-10C39.25,21.438,30.464,23.313,19.625,23.313z"/><linearGradient id="svg1.SVGID_4_" x1="642.801" x2="682.051" y1="-959.695" y2="-959.695" gradientTransform="matrix(1 0 0 -1 -642.8008 -939.4756)" gradientUnits="userSpaceOnUse"><stop offset="0" stop-color="#9CD7FF"/><stop offset=".004" stop-color="#9DD7FF"/><stop offset=".227" stop-color="#BDE5FF"/><stop offset=".414" stop-color="#D1EEFF"/><stop offset=".539" stop-color="#D9F1FF"/><stop offset=".616" stop-color="#D5EFFE"/><stop offset=".689" stop-color="#C9E7FA"/><stop offset=".762" stop-color="#B6DAF3"/><stop offset=".834" stop-color="#9AC8EA"/><stop offset=".905" stop-color="#77B0DD"/><stop offset=".975" stop-color="#4D94CF"/><stop offset="1" stop-color="#3C89C9"/></linearGradient><path fill="url(#svg1.SVGID_4_)" d="M19.625,23.313c10.839,0,19.625-1.875,19.625-4.188l-1.229-2c0,2.168-8.235,3.926-18.396,3.926 c-9.481,0-17.396-1.959-18.396-3.926l-1.229,2C0,21.438,8.787,23.313,19.625,23.313z"/><path fill="#3C89C9" d="M19.476,13.019c10.161,0,19.625,2.775,19.625,2.775c-0.375,2.721-5.367,5.438-19.555,5.438 c-12.125,0-18.467-2.485-19.541-4.918C-0.277,15.674,9.316,13.019,19.476,13.019z"/><linearGradient id="svg1.SVGID_5_" x1="642.801" x2="682.051" y1="-952.495" y2="-952.495" gradientTransform="matrix(1 0 0 -1 -642.8008 -939.4756)" gradientUnits="userSpaceOnUse"><stop offset="0" stop-color="#3C89C9"/><stop offset=".148" stop-color="#60A6DD"/><stop offset=".311" stop-color="#81C1F0"/><stop offset=".448" stop-color="#95D1FB"/><stop offset=".539" stop-color="#9CD7FF"/><stop offset=".636" stop-color="#98D4FD"/><stop offset=".729" stop-color="#8DCAF6"/><stop offset=".821" stop-color="#79BBEB"/><stop offset=".912" stop-color="#5EA5DC"/><stop offset="1" stop-color="#3C89C9"/></linearGradient><path fill="url(#svg1.SVGID_5_)" d="M19.625,10.113C8.787,10.113,0,8.238,0,5.925v10c0,2.313,8.787,4.188,19.625,4.188 c10.839,0,19.625-1.875,19.625-4.188v-10C39.25,8.238,30.464,10.113,19.625,10.113z"/><linearGradient id="svg1.SVGID_6_" x1="642.801" x2="682.051" y1="-946.495" y2="-946.495" gradientTransform="matrix(1 0 0 -1 -642.8008 -939.4756)" gradientUnits="userSpaceOnUse"><stop offset="0" stop-color="#9CD7FF"/><stop offset=".004" stop-color="#9DD7FF"/><stop offset=".227" stop-color="#BDE5FF"/><stop offset=".414" stop-color="#D1EEFF"/><stop offset=".539" stop-color="#D9F1FF"/><stop offset=".616" stop-color="#D5EFFE"/><stop offset=".689" stop-color="#C9E7FA"/><stop offset=".762" stop-color="#B6DAF3"/><stop offset=".834" stop-color="#9AC8EA"/><stop offset=".905" stop-color="#77B0DD"/><stop offset=".975" stop-color="#4D94CF"/><stop offset="1" stop-color="#3C89C9"/></linearGradient><path fill="url(#svg1.SVGID_6_)" d="M19.625,10.113c10.839,0,19.625-1.875,19.625-4.188l-1.229-2c0,2.168-8.235,3.926-18.396,3.926 c-9.481,0-17.396-1.959-18.396-3.926L0,5.925C0,8.238,8.787,10.113,19.625,10.113z"/><linearGradient id="svg1.SVGID_7_" x1="644.029" x2="680.822" y1="-943.401" y2="-943.401" gradientTransform="matrix(1 0 0 -1 -642.8008 -939.4756)" gradientUnits="userSpaceOnUse"><stop offset="0" stop-color="#9CD7FF"/><stop offset="1" stop-color="#3C89C9"/></linearGradient><ellipse cx="19.625" cy="3.926" fill="url(#svg1.SVGID_7_)" rx="18.396" ry="3.926"/><path fill="#FFF" d="M31.04,45.982c0,0-4.354,0.664-7.29,0.781 c-3.125,0.125-8.952,0-8.952,0l-2.384-10.292l0.044-2.108l-1.251-1.154L9.789,23.024l-0.082-0.119L9.5,20.529l-1.65-1.254 L5.329,8.793c0,0,4.213,0.903,7.234,1.07s8.375,0.25,8.375,0.25l3,9.875l-0.25,1.313l1.063,2.168l2.312,9.645l-0.521,1.416 l1.46,1.834L31.04,45.982z" enable-background="new" opacity=".24"/></svg></g></g><g stroke-linecap="butt" stroke-miterlimit="1.45" font-family="sans-serif" shape-rendering="geometricPrecision" text-rendering="geometricPrecision"><text x="621.165" y="582.952" stroke="none" clip-path="url(#clipPath2)" transform="matrix(1,0,0,1,-425,-54)" xml:space="preserve">DB</text><path fill="none" d="M629.5 415 L629.5 391" clip-path="url(#clipPath2)" transform="matrix(1,0,0,1,-425,-54)"/><path fill="none" d="M629.5 318 L629.5 294" clip-path="url(#clipPath2)" transform="matrix(1,0,0,1,-425,-54)"/><path fill="none" d="M629.5 166 L629.5 142" clip-path="url(#clipPath2)" transform="matrix(1,0,0,1,-425,-54)"/><path fill="none" d="M629.5 518.0357 L629.5 488" clip-path="url(#clipPath2)" transform="matrix(1,0,0,1,-425,-54)"/></g></g></svg>